<svg xmlns="http://www.w3.org/2000/svg" width="300.79" height="86.889" viewBox="0 0 300.79 86.889"><title>logo</title><path d="M37.038,22.4a27.7,27.7,0,0,0-5.35-4.526,36.578,36.578,0,0,0-6.291-3.28,38.822,38.822,0,0,0-6.657-2.012,32,32,0,0,0-6.371-.693c-.042,0-.385.028-1.029.093q-.877.087-2.148.2c-.88.082-1.832.213-2.83.392a19.986,19.986,0,0,0-2.829.708,8.79,8.79,0,0,0-2.291,1.124A2.672,2.672,0,0,0,0,16.635v.234a2.5,2.5,0,0,0,.126.7q.089.309.179.586l.141.436a1.559,1.559,0,0,0,.357.638l.282.284h.1a1.2,1.2,0,0,0,1.119-.047l.073-.039c.37-.169.778-.385,1.246-.659a7.3,7.3,0,0,1,1.844-.629,30.667,30.667,0,0,1,3.764-.594c1.484-.161,3.472-.247,5.916-.257a6.25,6.25,0,0,1,.364.84,19.962,19.962,0,0,1,.619,2.116c.183.777.33,1.528.438,2.234.114.747.208,1.355.3,1.917a27.785,27.785,0,0,1,.71,4.235c.149,1.582.272,3.215.366,4.854s.159,3.238.2,4.742a37.5,37.5,0,0,0,.293,4.068,8.256,8.256,0,0,0,.8,2.847,2.107,2.107,0,0,0,.629.722q-.408-.119-.821-.244-1.372-.413-2.545-.738a7.205,7.205,0,0,0-1.7-.356,1.618,1.618,0,0,0-1.637,1.215,4.551,4.551,0,0,0-.182,1.25,3.179,3.179,0,0,0,.7,2.005,5.07,5.07,0,0,0,1.47,1.269,15.145,15.145,0,0,0,1.542.781c.519.228.96.4,1.4.549a22.423,22.423,0,0,0,5.476.673,23.34,23.34,0,0,0,5.466-.642,18.922,18.922,0,0,0,5.076-2.036,16.919,16.919,0,0,0,4.212-3.451,15.443,15.443,0,0,0,2.853-4.824,17.569,17.569,0,0,0,1.029-6.161,17.3,17.3,0,0,0-1.419-6.975A21.211,21.211,0,0,0,37.038,22.4ZM21.626,45.983a2.12,2.12,0,0,0,1.1-.415A2.327,2.327,0,0,0,23.51,44.5a3.211,3.211,0,0,0,.206-1.12v-.673a26.389,26.389,0,0,0,0-6.018c-.191-1.971-.472-4.018-.833-6.084q-.538-3.07-1.075-6.4a47,47,0,0,1-.549-5.67,19.3,19.3,0,0,1,2.54.9A27.959,27.959,0,0,1,27.686,21.5a28.8,28.8,0,0,1,3.649,2.749,19.532,19.532,0,0,1,2.969,3.29,17.342,17.342,0,0,1,2.01,3.68,10.249,10.249,0,0,1,.723,3.755,8.9,8.9,0,0,1-1.2,4.5,14.226,14.226,0,0,1-3.209,3.807,15.164,15.164,0,0,1-4.374,2.563,13.307,13.307,0,0,1-4.715.906h-.225a14.751,14.751,0,0,1-1.629-.378q-.385-.1-.774-.212A2.058,2.058,0,0,0,21.626,45.983Z" fill="#333"/><path d="M63.476,28.646a6.534,6.534,0,0,0-.211-1.811,4.051,4.051,0,0,0-.649-1.328,6.065,6.065,0,0,0-.817-.878q-.389-.338-.865-.708l-.134-.1-.16-.051q-.917-.3-1.606-.5-.7-.211-1.323-.364a9.608,9.608,0,0,0-1.323-.228,11.721,11.721,0,0,0-3.928.26,19.92,19.92,0,0,0-2.352.77q-1.13.449-2.232.958c-.543.251-1.081.476-1.606.669-.1-.044-.2-.09-.325-.137l-.207-.081-.015-.276h-.968a1.047,1.047,0,0,0-.348.059h-.28l-.284.293a2.989,2.989,0,0,0-.721,1.228,5.223,5.223,0,0,0-.213,1.239,7.119,7.119,0,0,0,.034,1.2,7.686,7.686,0,0,1,.052.847c.076,1.468.242,3.125.491,4.921s.587,3.667,1.007,5.561a58.542,58.542,0,0,0,1.558,5.665A33.45,33.45,0,0,0,48.275,51.1l.276.518h.572a2.854,2.854,0,0,0,2.118-.982,2.91,2.91,0,0,0,.89-2.025,18.307,18.307,0,0,0-.541-3.292c-.268-1.025-.568-2.075-.892-3.122s-.669-2.09-1.032-3.137a26.421,26.421,0,0,1-.846-2.988,16.784,16.784,0,0,1-.373-3.009,11.635,11.635,0,0,1,.278-2.912,4.265,4.265,0,0,1,1.692-1.644,4.018,4.018,0,0,1,1.982-.62,10.123,10.123,0,0,1,2.49.216c.912.189,1.809.418,2.664.681.9.279,1.79.513,2.631.695a7.287,7.287,0,0,0,2.446.16l.847-.11Z" fill="#333"/><path d="M91.311,45.063l.064-.532a21.653,21.653,0,0,0-.055-5.276,24.793,24.793,0,0,0-1.213-5.35,32.848,32.848,0,0,0-2.254-5.08,21.159,21.159,0,0,0-3.187-4.4,18.153,18.153,0,0,0-4.016-3.188,11.81,11.81,0,0,0-4.813-1.563,6.6,6.6,0,0,0-2.017.309,6.248,6.248,0,0,0-1.741.867,4.2,4.2,0,0,0-1.333,1.6,5.157,5.157,0,0,0-.471,2.264,1.332,1.332,0,0,0,.535.993c.111.1.2.181.251.233l.026.026a1.043,1.043,0,0,0,.894.451,2.717,2.717,0,0,0,1.338-.324q.4-.222.831-.509a3.8,3.8,0,0,1,.658-.352,1.669,1.669,0,0,1,.633-.1,5.521,5.521,0,0,1,2.516.686A11.674,11.674,0,0,1,80.6,27.714a10.259,10.259,0,0,1,1.991,2.59,5.775,5.775,0,0,1,.716,2.277,25.018,25.018,0,0,0-5.229-1.3,18.025,18.025,0,0,0-5.388.067A12.791,12.791,0,0,0,68.5,32.846a11.955,11.955,0,0,0-2.962,2.4,9.756,9.756,0,0,0-1.767,2.813,8.417,8.417,0,0,0-.638,2.605v.058a9.121,9.121,0,0,0,1.648,5.592,10.985,10.985,0,0,0,4.01,3.31,17.822,17.822,0,0,0,5.15,1.58,34.287,34.287,0,0,0,5.191.421,10.563,10.563,0,0,0,1.73-.221q1.124-.208,2.421-.506c.864-.2,1.786-.451,2.74-.752s1.793-.584,2.56-.862a12.4,12.4,0,0,0,2-.892,2.063,2.063,0,0,0,1.2-1.634,5.537,5.537,0,0,0-.07-.87A1.583,1.583,0,0,0,91.311,45.063Zm-3.644-.592c-.8.021-1.612.079-2.412.174q-1.492.178-3.011.415-1.485.232-3,.405a26.591,26.591,0,0,1-3.013.169,17.469,17.469,0,0,1-2.416-.225,12.8,12.8,0,0,1-2.905-.792,7.825,7.825,0,0,1-2.325-1.405,2.051,2.051,0,0,1-.744-1.618,3.18,3.18,0,0,1,.444-1.719,4.754,4.754,0,0,1,1.319-1.382A9.62,9.62,0,0,1,71.67,37.4a17.9,17.9,0,0,1,4.686-1.142c.7-.07,1.308-.107,1.817-.112.484.111,1.113.285,1.869.515a9.545,9.545,0,0,1,2.443,1.228,14.134,14.134,0,0,1,2.726,2.494A16.123,16.123,0,0,1,87.667,44.471Z" fill="#333"/><path d="M128.334,33.508a15.148,15.148,0,0,0-1.978-3.358,4.944,4.944,0,0,0-2.469-1.887l-.236-.03c-.137,0-.32.011-.552.035a2.494,2.494,0,0,0-.764.192,1.632,1.632,0,0,0-.772.715,1.907,1.907,0,0,0-.1,1.415l.048.195.116.161a14.505,14.505,0,0,1,1.456,2.574,18.532,18.532,0,0,1,1.075,3.137,14.568,14.568,0,0,1,.424,3.228,6.986,6.986,0,0,1-.464,2.733,3.872,3.872,0,0,1-1.454,1.806,5.26,5.26,0,0,1-2.814.743,3.791,3.791,0,0,1-2.66-.814,5.418,5.418,0,0,1-1.508-2.311,15.394,15.394,0,0,1-.77-3.324q-.226-1.864-.395-3.525a18.889,18.889,0,0,0-.484-2.888,2.07,2.07,0,0,0-2.01-1.787,1.967,1.967,0,0,0-.758.189,5.785,5.785,0,0,0-.65.319,5.159,5.159,0,0,0-.59.395,1.41,1.41,0,0,0-.614,1.106l-.341,7.663a3.049,3.049,0,0,1-.638,1.757A8.717,8.717,0,0,1,106.6,43.84a12.489,12.489,0,0,1-2.369,1.442c-1.523.7-2.449.689-3.242.061a6.806,6.806,0,0,1-1.361-1.487,10.763,10.763,0,0,1-1.114-2.089,17.1,17.1,0,0,1-.776-2.406c-.2-.819-.355-1.606-.465-2.34a12.43,12.43,0,0,1-.159-1.752,9.461,9.461,0,0,1,.179-1.85q.194-.974.416-1.893.229-.948.431-1.868a9.992,9.992,0,0,0,.222-2.124,8.957,8.957,0,0,0-.132-1.545,2.323,2.323,0,0,0-1.63-1.676l-.613-.238-.441.5a13.142,13.142,0,0,0-2.793,5.043A18.722,18.722,0,0,0,92,35.289,21.464,21.464,0,0,0,95.19,46.009,14.331,14.331,0,0,0,98.6,49.783a8.175,8.175,0,0,0,4.423,1.746q.245.018.494.018a9.154,9.154,0,0,0,4.393-1.245,14.4,14.4,0,0,0,4.214-3.811c.351.363.653.691.9.982.451.528.882.993,1.278,1.381a6.637,6.637,0,0,0,1.394,1.062,5.619,5.619,0,0,0,2.007.611,18.256,18.256,0,0,0,2.785.126c1.06-.019,2.451-.089,4.132-.208l.21-.015.185-.1a8.714,8.714,0,0,0,3.5-3.437,11.4,11.4,0,0,0,1.34-4.439,16.8,16.8,0,0,0-.241-4.682A20.081,20.081,0,0,0,128.334,33.508Z" fill="#333"/><path d="M143.078,45.114a13.324,13.324,0,0,1-3.678-1.579,6.681,6.681,0,0,1-2.083-2.063,9.111,9.111,0,0,1-1.073-2.531q-.119-.471-.2-.954a3.1,3.1,0,0,0,.749.435,4.243,4.243,0,0,0,1.637.307h1.39a14.958,14.958,0,0,0,4.178-.653,16.523,16.523,0,0,0,4.153-1.866,11.408,11.408,0,0,0,3.286-3.109,7.512,7.512,0,0,0,1.375-4.4,16.169,16.169,0,0,0-.372-3.533A8.988,8.988,0,0,0,151,22.037a8.507,8.507,0,0,0-2.561-2.287,9.4,9.4,0,0,0-3.624-1.179l-.117-.007a12.877,12.877,0,0,0-6.024,1.368,13.628,13.628,0,0,0-4.4,3.627,16.173,16.173,0,0,0-2.724,5.216,20.354,20.354,0,0,0-.927,6.141,17.146,17.146,0,0,0,1.363,6.947,15.518,15.518,0,0,0,3.728,5.257,17.044,17.044,0,0,0,5.408,3.323,18.071,18.071,0,0,0,6.52,1.176,20.116,20.116,0,0,0,3.034-.245,21.144,21.144,0,0,0,3.235-.766,15.389,15.389,0,0,0,3.144-1.406,8.33,8.33,0,0,0,2.6-2.389l1.218-1.729-12.162.842A26.1,26.1,0,0,1,143.078,45.114Zm-6.716-15.43a10.781,10.781,0,0,1,1.608-3.028,8.313,8.313,0,0,1,2.463-2.176,7.709,7.709,0,0,1,3.215-.989,2.939,2.939,0,0,1,1.711.3,4.856,4.856,0,0,1,1.441,1.172,4.988,4.988,0,0,1,.919,1.683,6.514,6.514,0,0,1,.319,2,2.366,2.366,0,0,1-.842,1.54,11.329,11.329,0,0,1-2.482,1.86,20.5,20.5,0,0,1-2.927,1.372,6.8,6.8,0,0,1-1.9.5c-.875-.15-1.573-.263-2.158-.348-.237-.017-.45-.026-.643-.026a3.822,3.822,0,0,0-.819.075,2.1,2.1,0,0,0-.472.161q0-.309,0-.619A10.661,10.661,0,0,1,136.361,29.684Z" fill="#333"/><path d="M185.58,36.43a13.792,13.792,0,0,0-3.959-1.355c-1.382-.257-2.832-.458-4.311-.6q-2.175-.2-4.236-.437a17.236,17.236,0,0,1-3.467-.72,5.7,5.7,0,0,1-2.213-1.27,2.643,2.643,0,0,1-.688-2l-.007-.118a.974.974,0,0,1,.394-.9,5.2,5.2,0,0,1,1.821-1.028,11.357,11.357,0,0,1,2.722-.566,10.263,10.263,0,0,1,2.779.105,6.582,6.582,0,0,1,2.181.789,1.731,1.731,0,0,1,.744.784,4.745,4.745,0,0,0-.573,1.914,2.7,2.7,0,0,0,.454,1.762,1.956,1.956,0,0,0,1.508.8,2.377,2.377,0,0,0,1.635-.556,3.536,3.536,0,0,0,1.082-1.579,5.217,5.217,0,0,0,.234-2.322,5.9,5.9,0,0,0-1.61-4.009,8.435,8.435,0,0,0-3.579-2.217,13.813,13.813,0,0,0-4.47-.632,15.026,15.026,0,0,0-4.569.752,11.07,11.07,0,0,0-3.786,2.121,6.311,6.311,0,0,0-2.114,3.714l-.018.1,0,.1a9.644,9.644,0,0,0,1.161,4.715,8.122,8.122,0,0,0,2.9,2.928,13.1,13.1,0,0,0,3.882,1.487,41.235,41.235,0,0,0,4.208.689q2.1.236,4.091.44a16.037,16.037,0,0,1,3.374.689,5.217,5.217,0,0,1,2.136,1.25,2.552,2.552,0,0,1,.6,1.959,2.153,2.153,0,0,1-.7,1.813,5.28,5.28,0,0,1-2.215.987,13.139,13.139,0,0,1-3.024.273c-2.577-.042-4.246-.018-5.348-.086a6.1,6.1,0,0,1-1.474-.25,12.565,12.565,0,0,1-1.5-.6c-.591-.275-1.383-.63-2.359-1.057a3.958,3.958,0,0,1-.776-.472c-.285-.22-.559-.449-.826-.688a5.5,5.5,0,0,0-1.136-.783,3.644,3.644,0,0,0-2.494-.256,3.149,3.149,0,0,0-1.186.615l-.6.462.28.713a10.314,10.314,0,0,0,2.141,3.437,11.608,11.608,0,0,0,2.939,2.206,13.729,13.729,0,0,0,3.5,1.259,32.456,32.456,0,0,0,3.592.573c1.179.12,2.351.19,3.481.21s2.176.029,3.165.029a13.909,13.909,0,0,0,3.347-.438,11.307,11.307,0,0,0,3.313-1.408,8.851,8.851,0,0,0,2.581-2.472,6.423,6.423,0,0,0,1.086-3.713,8.1,8.1,0,0,0-1.128-4.452A7.945,7.945,0,0,0,185.58,36.43Z" fill="#333"/><path d="M216.545,32.242a18.721,18.721,0,0,0-1.65-2.757,13.1,13.1,0,0,0-2.239-2.408,11.212,11.212,0,0,0-2.67-1.666,7.785,7.785,0,0,0-3.127-.635,20.942,20.942,0,0,0-5.789.828,16.4,16.4,0,0,0-5.268,2.583,13.945,13.945,0,0,0-3.845,4.35,12.284,12.284,0,0,0-1.494,6.13,14.385,14.385,0,0,0,.981,5.393,11.509,11.509,0,0,0,2.766,4.135,12.606,12.606,0,0,0,4.111,2.57,14.084,14.084,0,0,0,5.134.914,16.072,16.072,0,0,0,5.3-.9,14.875,14.875,0,0,0,4.667-2.631,12.813,12.813,0,0,0,3.32-4.285,13.155,13.155,0,0,0,1.236-5.779,12.191,12.191,0,0,0-.371-2.914A15.076,15.076,0,0,0,216.545,32.242Zm-3.7,5.618a6.783,6.783,0,0,1-.915,2.6,11.1,11.1,0,0,1-1.954,2.42,15.342,15.342,0,0,1-2.506,1.929A11.787,11.787,0,0,1,204.9,46a4.819,4.819,0,0,1-1.958.285l-.113-.007a7.123,7.123,0,0,1-3.009-.646,7.751,7.751,0,0,1-4.062-4.324,8.509,8.509,0,0,1-.582-3.112,6.115,6.115,0,0,1,.92-3.378,8.559,8.559,0,0,1,2.443-2.524,11.475,11.475,0,0,1,3.379-1.541,13.817,13.817,0,0,1,3.466-.521,19.039,19.039,0,0,1,4.752,2.467,7.311,7.311,0,0,1,2.283,2.612A4.593,4.593,0,0,1,212.848,37.86Z" fill="#333"/><path d="M260.474,34.643A25.258,25.258,0,0,0,259,30.917a15.625,15.625,0,0,0-2.184-3.318,10.722,10.722,0,0,0-2.964-2.415,8.015,8.015,0,0,0-3.883-.936,7.456,7.456,0,0,0-2.922.632,17.28,17.28,0,0,0-2.7,1.458,25.115,25.115,0,0,0-2.478,1.858q-1.154.983-2.017,1.787c-.51.474-.939.9-1.279,1.256a21.994,21.994,0,0,0-1.36-1.772,9.2,9.2,0,0,0-2.224-2,9.7,9.7,0,0,0-2.672-1.138,12.663,12.663,0,0,0-3.217-.383c-.7,0-1.3.021-1.808.062a5.088,5.088,0,0,0-1.669.432,7.644,7.644,0,0,0-1.56.97q-.264.207-.545.461c-.043-.067-.088-.131-.135-.191a2.5,2.5,0,0,0-2.222-1.147h-.884l-.219.458-.044.036a1.812,1.812,0,0,0-.572.652l-.1.208V28.5c0,.148-.009.314-.024.491-.024.249-.033.485-.033.71v.41c0,1.426.049,2.793.145,4.062l.284,3.722c.095,1.24.17,2.539.225,3.861s.045,2.8-.028,4.361l-.007.147.034.144q.118.483.292,1.117a5.844,5.844,0,0,0,.55,1.345,3.642,3.642,0,0,0,.971,1.12,2.616,2.616,0,0,0,1.622.517,1.913,1.913,0,0,0,2.071-1.421,7.173,7.173,0,0,0,.2-1.747,34.445,34.445,0,0,0-.321-4.683,32.673,32.673,0,0,1-.3-4.458,8.9,8.9,0,0,1,.381-2.573,8.08,8.08,0,0,1,1.057-2.238,4.809,4.809,0,0,1,1.632-1.489,4.535,4.535,0,0,1,2.258-.551,3.56,3.56,0,0,1,2.6.961,9.365,9.365,0,0,1,1.943,2.834,25.5,25.5,0,0,1,1.417,3.915q.6,2.173,1.136,4.08a17.291,17.291,0,0,0,1.271,3.334,2.813,2.813,0,0,0,2.523,1.751,2.061,2.061,0,0,0,2.126-1.352,5.15,5.15,0,0,0,.317-1.757,6.95,6.95,0,0,0-.334-2.134q-.294-.9-.613-1.747-.3-.8-.582-1.632a4.409,4.409,0,0,1-.23-1.4,5.316,5.316,0,0,1,.837-2.844,9.736,9.736,0,0,1,2.137-2.631,12.679,12.679,0,0,1,2.9-1.906c1.944-.919,3.731-1.089,5.038.381a11.222,11.222,0,0,1,1.9,3.066,19.123,19.123,0,0,1,1.158,3.725c.255,1.289.423,2.337.491,3.022,0,.147-.02.486-.055,1.015q-.054.824-.164,1.73-.116.948-.2,1.777c-.051.488-.078.821-.088,1l-.06.981c0,.163-.008.325-.023.482a5.737,5.737,0,0,0-.034.573v.762a2.777,2.777,0,0,0,.182,1.015,2.267,2.267,0,0,0,.6.877,1.977,1.977,0,0,0,1.378.456,2.659,2.659,0,0,0,2.45-1.687,10.6,10.6,0,0,0,.913-2.918,20.822,20.822,0,0,0,.3-3.083q.028-1.449.028-2.042a25.178,25.178,0,0,0-.266-3.483A24.87,24.87,0,0,0,260.474,34.643Z" fill="#333"/><path d="M280.416,45.926a26.107,26.107,0,0,1-5.635-.812,13.317,13.317,0,0,1-3.678-1.579,6.673,6.673,0,0,1-2.083-2.062,9.119,9.119,0,0,1-1.073-2.531q-.119-.472-.2-.954a3.141,3.141,0,0,0,.75.435,4.245,4.245,0,0,0,1.637.307h1.39a14.954,14.954,0,0,0,4.178-.653,16.527,16.527,0,0,0,4.153-1.866,11.392,11.392,0,0,0,3.286-3.109,7.506,7.506,0,0,0,1.375-4.4,16.162,16.162,0,0,0-.372-3.532,8.96,8.96,0,0,0-1.442-3.136,8.508,8.508,0,0,0-2.561-2.286,9.389,9.389,0,0,0-3.623-1.179l-.117-.007a12.876,12.876,0,0,0-6.024,1.368,13.609,13.609,0,0,0-4.4,3.627,16.172,16.172,0,0,0-2.723,5.216,20.326,20.326,0,0,0-.927,6.141,17.146,17.146,0,0,0,1.363,6.947,15.5,15.5,0,0,0,3.728,5.257,17.04,17.04,0,0,0,5.407,3.323,18.076,18.076,0,0,0,6.521,1.176,20.132,20.132,0,0,0,3.034-.245,21.159,21.159,0,0,0,3.235-.766A15.426,15.426,0,0,0,288.76,49.2a8.328,8.328,0,0,0,2.6-2.39l1.217-1.729ZM268.064,29.684a10.775,10.775,0,0,1,1.608-3.028,8.326,8.326,0,0,1,2.463-2.177,7.706,7.706,0,0,1,3.215-.989,2.936,2.936,0,0,1,1.71.3,4.855,4.855,0,0,1,1.442,1.171,5.023,5.023,0,0,1,.92,1.684,6.524,6.524,0,0,1,.319,2,2.365,2.365,0,0,1-.841,1.54,11.361,11.361,0,0,1-2.482,1.86,20.548,20.548,0,0,1-2.927,1.372,6.79,6.79,0,0,1-1.9.5c-.875-.15-1.574-.263-2.158-.348-.237-.017-.45-.026-.643-.026a3.829,3.829,0,0,0-.82.075,2.107,2.107,0,0,0-.471.161q0-.309,0-.619A10.645,10.645,0,0,1,268.064,29.684Z" fill="#333"/><path d="M300.616,46.409a4.354,4.354,0,0,0-.628-1.377,4.7,4.7,0,0,0-1-1.073,2.561,2.561,0,0,0-1.6-.551,6.784,6.784,0,0,0-3.555.959,3.69,3.69,0,0,0-1.723,3.38,4.476,4.476,0,0,0,.8,2.752,3.263,3.263,0,0,0,2.777,1.177,5.643,5.643,0,0,0,1.5-.239,5.781,5.781,0,0,0,1.629-.737,6.113,6.113,0,0,0,1.282-1.117,2.753,2.753,0,0,0,.7-1.836A5.505,5.505,0,0,0,300.616,46.409Z" fill="#333"/><path d="M293.466,5.854v5.713q0,3.131-.028,6.554t0,6.581c.019,2.089.058,4.029.114,5.767a39.1,39.1,0,0,0,.322,4.25l.029.135a1.734,1.734,0,0,0,1.429,1.35,7.569,7.569,0,0,0,.973.066,2.032,2.032,0,0,0,1.731-.771,3.1,3.1,0,0,0,.56-1.429,7.454,7.454,0,0,0,.066-1.4c-.019-.392-.027-.736-.027-1.034V30.99c0-.294-.01-.6-.03-.919-.019-.266-.026-.5-.026-.692l0-.522c-.036-.445-.063-1.2-.081-2.25q-.03-1.614-.085-3.729-.057-2.1-.057-4.513,0-2.443-.057-4.858-.057-2.4-.085-4.618t-.057-3.93c-.02-1.125-.028-2.037-.03-2.792L298.006,0l-4.719.8.068.916C293.429,2.7,293.466,4.091,293.466,5.854Z" fill="#333"/><path d="M23.7,74.284q-.113-1.034-.275-2.2t-.342-2.271c-.12-.732-.254-1.435-.4-2.089a14.087,14.087,0,0,0-.456-1.641,2.7,2.7,0,0,0-.52-.965.439.439,0,0,0-.381-.152.633.633,0,0,0-.42.339l-.049.078v.1a8.218,8.218,0,0,0,.108,1.266q.1.671.239,1.33t.277,1.237c.092.37.156.666.191.878q.113.817.206,1.771.094.912.169,1.844t.161,1.868q.086.929.181,1.778l.022.087c.013.033.043.1.089.2a2.07,2.07,0,0,0,.209.363,3.277,3.277,0,0,0,.247.311.446.446,0,0,0,.331.172.288.288,0,0,0,.111-.021.7.7,0,0,0,.374-.227.774.774,0,0,0,.171-.384,2.172,2.172,0,0,0,.023-.315v-.274c0-.285-.025-.692-.077-1.245Q23.818,75.316,23.7,74.284Z" fill="#ff6f0d"/><path d="M30.152,68.87a.961.961,0,0,0-.706-.188l-1.4-.079L27.9,64.608a1.142,1.142,0,0,0-.079-.408,1.705,1.705,0,0,0-.185-.35,1.247,1.247,0,0,0-.277-.292A.61.61,0,0,0,27,63.424a1.045,1.045,0,0,0-.206.028,1.013,1.013,0,0,0-.242.089.642.642,0,0,0-.236.229.816.816,0,0,0-.1.435q.018.829.048,1.348c.019.341.034.668.047.977a9.157,9.157,0,0,1-.018.967q-.033.457-.092,1.137l-1.726.184a.431.431,0,0,0-.417.407,2.066,2.066,0,0,0-.033.32.864.864,0,0,0,.472.793,2.714,2.714,0,0,0,.8.285,4.208,4.208,0,0,0,.823.084h.263c-.014.232-.025.526-.033.887q-.02.829-.009,1.805c.006.647.031,1.315.077,1.987a12.356,12.356,0,0,0,.233,1.788,3.4,3.4,0,0,0,.475,1.235.65.65,0,0,0,.519.309.838.838,0,0,0,.491-.191l.116-.086-.009-.811q-.01-.572-.028-1.385t-.047-1.773q-.028-.959-.047-1.8T28.071,71.2c-.008-.251-.013-.442-.016-.572a.8.8,0,0,1,.366-.1q.335-.01.676,0a3.4,3.4,0,0,0,.713-.049,1.1,1.1,0,0,0,.691-.445l.069-.09,0-.122A1.158,1.158,0,0,0,30.152,68.87Z" fill="#ff6f0d"/><path d="M32.265,64.456q-.039-.519-.1-1.062A8.567,8.567,0,0,0,32,62.369a4.337,4.337,0,0,0-.287-.854,1.4,1.4,0,0,0-.463-.592l-.158-.1-.319.384a1.117,1.117,0,0,0-.152.234.765.765,0,0,0-.069.327v.7c0,.248.006.556.019.927s.035.763.067,1.18A9.706,9.706,0,0,0,30.8,65.74a4.143,4.143,0,0,0,.289.932c.19.407.44.492.617.492a.52.52,0,0,0,.577-.437,3.4,3.4,0,0,0,.043-.588c0-.184,0-.423-.009-.717S32.29,64.806,32.265,64.456Z" fill="#ff6f0d"/><path d="M40.731,72.828a4.087,4.087,0,0,0-1.3-.52,13.918,13.918,0,0,0-1.428-.232q-.725-.08-1.413-.171a5.086,5.086,0,0,1-1.17-.285,1.933,1.933,0,0,1-.768-.518,1.286,1.286,0,0,1-.256-.884.524.524,0,0,1,.157-.433,1.763,1.763,0,0,1,.634-.42,3.366,3.366,0,0,1,.925-.226,3,3,0,0,1,.947.042,2.079,2.079,0,0,1,.753.32.735.735,0,0,1,.3.4,2.05,2.05,0,0,0-.2.746,1.091,1.091,0,0,0,.135.623.555.555,0,0,0,.443.274.64.64,0,0,0,.491-.2,1.3,1.3,0,0,0,.335-.574,2.3,2.3,0,0,0,.073-.868,2.422,2.422,0,0,0-.513-1.5,2.72,2.72,0,0,0-1.159-.841,4.041,4.041,0,0,0-1.464-.241,4.272,4.272,0,0,0-1.5.288,3.513,3.513,0,0,0-1.234.809,2.514,2.514,0,0,0-.681,1.453,4.165,4.165,0,0,0,.375,1.791,2.892,2.892,0,0,0,.937,1.108,3.933,3.933,0,0,0,1.27.57,11.913,11.913,0,0,0,1.394.268q.7.092,1.362.171a4.79,4.79,0,0,1,1.141.273,1.789,1.789,0,0,1,.743.511,1.206,1.206,0,0,1,.222.833,1.015,1.015,0,0,1-.264.785,1.715,1.715,0,0,1-.77.4,4.315,4.315,0,0,1-1.025.109c-.857-.017-1.406-.007-1.785-.034a1.813,1.813,0,0,1-.51-.1,3.749,3.749,0,0,1-.51-.238c-.2-.107-.46-.245-.786-.412a1.38,1.38,0,0,1-.274-.195q-.145-.131-.28-.273a1.763,1.763,0,0,0-.362-.292.986.986,0,0,0-.777-.092.945.945,0,0,0-.365.223l-.148.136.07.208a4.062,4.062,0,0,0,.7,1.308,3.874,3.874,0,0,0,.958.842,4.088,4.088,0,0,0,1.147.483,9.258,9.258,0,0,0,1.188.222c.4.047.784.074,1.153.081s.724.011,1.053.011a3.934,3.934,0,0,0,1.1-.168,3.436,3.436,0,0,0,1.081-.539,3.13,3.13,0,0,0,.835-.937,2.709,2.709,0,0,0,.347-1.392,3.48,3.48,0,0,0-.362-1.682A2.764,2.764,0,0,0,40.731,72.828Z" fill="#ff6f0d"/><path d="M51.5,66.185a2.074,2.074,0,0,0-.055-.429,2.7,2.7,0,0,0-.162-.5,1.676,1.676,0,0,0-.277-.444.655.655,0,0,0-.839-.127.578.578,0,0,0-.247.518c.013,1.049.006,2.122-.019,3.187s-.037,2.147-.037,3.231.016,2.188.047,3.245c.032,1.083.112,2.182.239,3.265l.024.205.534.131a.438.438,0,0,0,.11.014.523.523,0,0,0,.451-.315,2.849,2.849,0,0,0,.258-.99c.058-.439.1-1.1.126-2.014.025-.893.025-2.082,0-3.536S51.573,68.325,51.5,66.185Z" fill="#ff6f0d"/><path d="M53.251,66a.56.56,0,0,0,.494-.64,1.687,1.687,0,0,0-.2-.628,2.26,2.26,0,0,0-.41-.562c-.2-.2-.374-.286-.5-.261a.852.852,0,0,0-.448.111.653.653,0,0,0-.267.616,2.982,2.982,0,0,0,.056.651.921.921,0,0,0,.231.456.829.829,0,0,0,.4.209,2.223,2.223,0,0,0,.52.051Z" fill="#ff6f0d"/><path d="M54.7,72.814c-.119-.721-.226-1.454-.32-2.182a12.912,12.912,0,0,1-.082-2.236l0-.09-.038-.078a1.379,1.379,0,0,0-.314-.431.69.69,0,0,0-.461-.168.525.525,0,0,0-.441.221,1.109,1.109,0,0,0-.14.781v.343q0,.245-.009.513c-.007.187-.009.367-.009.539v.343q0,.255.019.958t.067,1.587c.031.589.079,1.213.143,1.856s.139,1.239.229,1.773a8.364,8.364,0,0,0,.326,1.358c.16.46.378.694.648.694a.749.749,0,0,0,.688-.46,1.754,1.754,0,0,0,.2-.792A16.149,16.149,0,0,0,55.037,75Q54.875,73.9,54.7,72.814Z" fill="#ff6f0d"/><path d="M62.763,76.429a3.687,3.687,0,0,1-.718-.088,8.145,8.145,0,0,1-.977-.256,9.848,9.848,0,0,1-1.035-.4,4.208,4.208,0,0,1-.905-.552,3.125,3.125,0,0,1-.645-.694,1.277,1.277,0,0,1-.22-.731,1.75,1.75,0,0,1,.17-.664,8.125,8.125,0,0,1,.474-.914c.189-.316.412-.65.665-.993s.51-.679.767-1,.5-.615.725-.889a7.458,7.458,0,0,1,.583-.639l.082-.078.009-.125a1.627,1.627,0,0,0-.05-.571.525.525,0,0,0-.55-.389,1.3,1.3,0,0,0-.881.343,3.631,3.631,0,0,0-.633.753,10.038,10.038,0,0,0-.526.931q-.24.479-.49.894a3.169,3.169,0,0,1-.494.641.7.7,0,0,1-.51.21h-.075c-.045-.3-.1-.68-.159-1.154q-.133-.869-.294-1.854c-.107-.653-.232-1.309-.372-1.95s-.282-1.18-.424-1.621a2.152,2.152,0,0,0-.491-.942.334.334,0,0,0-.341-.075c-.215.079-.328.374-.395.588l-.02.063.005.067c.051.632.131,1.331.239,2.079s.22,1.511.341,2.288.232,1.555.339,2.338.177,1.51.214,2.181v.194c0,.118,0,.261.01.425s.009.307.009.455v.777c0,.178,0,.35-.009.512s-.01.326-.01.459v.238c0,.03-.007.1-.017.208s-.03.256-.054.4c-.026.161-.046.309-.06.445s-.021.241-.021.274a.914.914,0,0,0,.32.773.935.935,0,0,0,.584.206.633.633,0,0,0,.6-.565,5.868,5.868,0,0,0,.131-.816,3.641,3.641,0,0,1,.129-.7c.04-.134.094-.16.174-.16,0,0,.1.017.395.267q.382.324.89.706a11.45,11.45,0,0,0,1.06.712,2.111,2.111,0,0,0,1.061.35h.463a2.235,2.235,0,0,0,.581-.075,1.28,1.28,0,0,0,.526-.279.938.938,0,0,0,.277-.738,3.663,3.663,0,0,0-.021-.38A.522.522,0,0,0,62.763,76.429Z" fill="#ff6f0d"/><path d="M67.285,76.223a4.211,4.211,0,0,1-1.247-.628,2.536,2.536,0,0,1-.719-.834,4,4,0,0,1-.367-1.015,6.068,6.068,0,0,1-.105-.671.968.968,0,0,0,.4.353,1.165,1.165,0,0,0,.515.113h.463a4.257,4.257,0,0,0,1.37-.251,5.093,5.093,0,0,0,1.364-.718,4.046,4.046,0,0,0,1.071-1.187,3.174,3.174,0,0,0,.443-1.658,7.251,7.251,0,0,0-.121-1.354,3.709,3.709,0,0,0-.467-1.189,2.948,2.948,0,0,0-.829-.866,2.779,2.779,0,0,0-1.206-.45,3.719,3.719,0,0,0-1.97.523,4.7,4.7,0,0,0-1.438,1.39,6.63,6.63,0,0,0-.893,2,9.093,9.093,0,0,0-.3,2.365,7.573,7.573,0,0,0,.447,2.67,6.025,6.025,0,0,0,1.222,2.017,5.519,5.519,0,0,0,1.776,1.279,5.173,5.173,0,0,0,2.144.452,5.657,5.657,0,0,0,1-.094,6.149,6.149,0,0,0,1.065-.3,4.713,4.713,0,0,0,1.031-.54,2.912,2.912,0,0,0,.841-.905l.3-.506-3.87.316A7.594,7.594,0,0,1,67.285,76.223ZM64.8,71.886q0-.21,0-.42a4.907,4.907,0,0,1,.194-1.388,4.568,4.568,0,0,1,.548-1.209,3.051,3.051,0,0,1,.844-.874,2.374,2.374,0,0,1,1.1-.4,1.223,1.223,0,0,1,.128-.007.9.9,0,0,1,.486.136,1.8,1.8,0,0,1,.5.48,2.174,2.174,0,0,1,.321.689,3.082,3.082,0,0,1,.111.811,1.079,1.079,0,0,1-.305.671,3.982,3.982,0,0,1-.844.741,6.475,6.475,0,0,1-.986.541,2.257,2.257,0,0,1-.644.2c-.3-.061-.545-.107-.741-.141a1.421,1.421,0,0,0-.464.017A.487.487,0,0,0,64.8,71.886Z" fill="#ff6f0d"/><path d="M89.691,76.146l.026-.257a9.835,9.835,0,0,0-.018-2.035,11.043,11.043,0,0,0-.4-2.065,13.851,13.851,0,0,0-.745-1.966,8.221,8.221,0,0,0-1.048-1.695,6.263,6.263,0,0,0-1.32-1.228,3.484,3.484,0,0,0-1.564-.6,1.83,1.83,0,0,0-.648.116,1.927,1.927,0,0,0-.558.325,1.51,1.51,0,0,0-.418.589,2.2,2.2,0,0,0-.148.84.443.443,0,0,0,.15.313c.031.032.057.06.075.081l.021.173h.242a.735.735,0,0,0,.407-.115q.13-.085.272-.195a1.323,1.323,0,0,1,.232-.146.555.555,0,0,1,.241-.047,1.7,1.7,0,0,1,.874.278A4.15,4.15,0,0,1,86.942,70.3,2.631,2.631,0,0,1,87.2,71.38a7.431,7.431,0,0,0-1.838-.548,5.058,5.058,0,0,0-1.772.025,3.813,3.813,0,0,0-1.371.571,4.1,4.1,0,0,0-.967.914,3.857,3.857,0,0,0-.574,1.069,3.688,3.688,0,0,0-.206.985v.017A3.894,3.894,0,0,0,81,76.536,3.766,3.766,0,0,0,82.307,77.8,5.255,5.255,0,0,0,84,78.406a9.7,9.7,0,0,0,1.717.163,2.915,2.915,0,0,0,.562-.085q.374-.08.8-.2T87.989,78c.311-.116.6-.226.85-.335a3.832,3.832,0,0,0,.652-.34.71.71,0,0,0,.36-.553,2.3,2.3,0,0,0-.022-.323A.558.558,0,0,0,89.691,76.146Zm-1.006-.173a7.373,7.373,0,0,0-.917.07q-.5.069-1,.162t-1,.158a7.569,7.569,0,0,1-1.012.067,4.979,4.979,0,0,1-.816-.089,3.843,3.843,0,0,1-.985-.314,2.646,2.646,0,0,1-.8-.566.974.974,0,0,1-.276-.7,1.517,1.517,0,0,1,.161-.723,1.844,1.844,0,0,1,.462-.567,3.155,3.155,0,0,1,.7-.436,5.43,5.43,0,0,1,.809-.3,5.229,5.229,0,0,1,.773-.154c.249-.03.465-.045.6-.051.172.044.392.116.663.212a3.089,3.089,0,0,1,.834.491,5.174,5.174,0,0,1,.925.989,6.776,6.776,0,0,1,.847,1.661Z" fill="#ff6f0d"/><path d="M107.127,75.742q-.066-.717-.141-1.731t-.141-2.222c-.045-.817-.106-1.659-.181-2.5s-.172-1.708-.285-2.541-.263-1.637-.441-2.377a11.793,11.793,0,0,0-.652-1.988,4.022,4.022,0,0,0-.948-1.389l-.092-.083-.111.034a.9.9,0,0,0-.631.773,3.919,3.919,0,0,0,.017,1.207,13.966,13.966,0,0,0,.32,1.536q.216.829.422,1.758c.136.613.248,1.245.336,1.881a8.662,8.662,0,0,1,.079,1.31q-.4-.318-.759-.6A12.217,12.217,0,0,0,102.9,68.1a5.2,5.2,0,0,0-.977-.478,2.584,2.584,0,0,0-2.579.4,4.32,4.32,0,0,0-1.051,1.4,7.331,7.331,0,0,0-.594,1.819,9.853,9.853,0,0,0-.186,1.849,8.391,8.391,0,0,0,.186,1.623,7.956,7.956,0,0,0,.572,1.765,5.381,5.381,0,0,0,.959,1.449,1.9,1.9,0,0,0,1.416.644,3.644,3.644,0,0,0,1.351-.266,5.71,5.71,0,0,0,1.259-.7,6.64,6.64,0,0,0,1.1-1.022,8.96,8.96,0,0,0,.819-1.112.234.234,0,0,1,.073.029,1.7,1.7,0,0,1,.141.336c.048.152.093.319.135.5.046.2.1.383.15.543a1.632,1.632,0,0,0,.256.492.816.816,0,0,0,1.022.157c.142-.059.38-.234.38-.734l-.029-.139A3.153,3.153,0,0,1,107.127,75.742ZM104.6,71.818v.425a3.2,3.2,0,0,1-.346,1.373A6.026,6.026,0,0,1,103.331,75a5.508,5.508,0,0,1-1.211,1.04,1.854,1.854,0,0,1-1.854.23,1.321,1.321,0,0,1-.433-.489,3.7,3.7,0,0,1-.337-.924q-.148-.6-.331-1.4a5.742,5.742,0,0,1,.126-1.279,4.527,4.527,0,0,1,.44-1.236,2.645,2.645,0,0,1,.737-.871,1.627,1.627,0,0,1,1.022-.311,2.885,2.885,0,0,1,1.4.495A7.68,7.68,0,0,1,104.6,71.818Z" fill="#ff6f0d"/><path d="M114.049,68.541a2.152,2.152,0,0,0-.26-.327c-.085-.087-.181-.178-.285-.274l-.074-.046c-.2-.077-.38-.141-.534-.2s-.3-.1-.437-.141a2.747,2.747,0,0,0-.43-.087,3.3,3.3,0,0,0-1.281.1,5.919,5.919,0,0,0-.774.3q-.374.174-.74.372-.293.16-.571.277c-.037-.022-.081-.043-.132-.067l-.121-.056,0-.077h-.242a.234.234,0,0,0-.1.023h-.075l-.071.086a1.111,1.111,0,0,0-.22.439,2.211,2.211,0,0,0-.068.459,3.085,3.085,0,0,0,.01.451c.011.118.017.225.018.337.025.572.08,1.215.163,1.911s.193,1.418.334,2.162.314,1.482.517,2.2a14.173,14.173,0,0,0,.735,2.035l.069.152h.143a.816.816,0,0,0,.648-.353,1.129,1.129,0,0,0,.274-.715,8.167,8.167,0,0,0-.178-1.266q-.135-.6-.3-1.213t-.342-1.22a11.794,11.794,0,0,1-.285-1.177,7.656,7.656,0,0,1-.126-1.192,5.386,5.386,0,0,1,.1-1.178,1.648,1.648,0,0,1,.6-.686,1.275,1.275,0,0,1,.7-.255,2.928,2.928,0,0,1,.849.086,8.889,8.889,0,0,1,.894.267,9.009,9.009,0,0,0,.87.269,2.022,2.022,0,0,0,.788.061l.212-.033v-.258a2.836,2.836,0,0,0-.067-.678A1.6,1.6,0,0,0,114.049,68.541Z" fill="#ff6f0d"/><path d="M123.585,76.146l.026-.257a9.8,9.8,0,0,0-.018-2.035,10.972,10.972,0,0,0-.4-2.065,13.844,13.844,0,0,0-.745-1.966,8.221,8.221,0,0,0-1.048-1.695,6.263,6.263,0,0,0-1.32-1.228,3.484,3.484,0,0,0-1.564-.6,1.83,1.83,0,0,0-.648.116,1.9,1.9,0,0,0-.557.325,1.51,1.51,0,0,0-.419.59,2.2,2.2,0,0,0-.148.839.44.44,0,0,0,.15.313c.025.026.047.05.075.082l.021.172h.242a.735.735,0,0,0,.407-.115q.13-.085.272-.195a1.292,1.292,0,0,1,.233-.146.554.554,0,0,1,.241-.047,1.7,1.7,0,0,1,.874.278,4.15,4.15,0,0,1,1.578,1.789,2.631,2.631,0,0,1,.255,1.075,7.431,7.431,0,0,0-1.838-.548,5.073,5.073,0,0,0-1.772.025,3.82,3.82,0,0,0-1.371.571,4.1,4.1,0,0,0-.967.914,3.851,3.851,0,0,0-.573,1.069,3.689,3.689,0,0,0-.207.986v.017a3.9,3.9,0,0,0,.532,2.122A3.772,3.772,0,0,0,116.2,77.8a5.244,5.244,0,0,0,1.693.608,9.708,9.708,0,0,0,1.717.163,2.924,2.924,0,0,0,.562-.085q.373-.08.8-.2t.907-.292c.311-.116.6-.226.85-.335a3.832,3.832,0,0,0,.652-.34.71.71,0,0,0,.36-.553,2.361,2.361,0,0,0-.023-.324A.557.557,0,0,0,123.585,76.146Zm-1.005-.173a7.38,7.38,0,0,0-.918.07q-.5.069-1,.162t-1,.158a7.569,7.569,0,0,1-1.012.067,4.979,4.979,0,0,1-.816-.089,3.85,3.85,0,0,1-.985-.314,2.648,2.648,0,0,1-.8-.566.974.974,0,0,1-.276-.7,1.517,1.517,0,0,1,.161-.723,1.844,1.844,0,0,1,.462-.567,3.154,3.154,0,0,1,.7-.436,5.43,5.43,0,0,1,.809-.3,5.229,5.229,0,0,1,.773-.154c.249-.03.465-.045.6-.051.172.044.392.116.663.212a3.081,3.081,0,0,1,.834.491,5.174,5.174,0,0,1,.925.989,6.782,6.782,0,0,1,.847,1.661Z" fill="#ff6f0d"/><path d="M135.929,71.641a6.117,6.117,0,0,0-.648-1.288.88.88,0,0,0-1.014-.7.67.67,0,0,0-.231.068.5.5,0,0,0-.219.237.751.751,0,0,0-.025.481l.041.1a6.079,6.079,0,0,1,.493,1.022,8.191,8.191,0,0,1,.363,1.24,6.713,6.713,0,0,1,.144,1.281,3.245,3.245,0,0,1-.161,1.105,1.585,1.585,0,0,1-.514.749,1.635,1.635,0,0,1-.981.306,1.212,1.212,0,0,1-.938-.341,2.3,2.3,0,0,1-.526-.942,6.97,6.97,0,0,1-.261-1.318q-.076-.727-.132-1.377a8.363,8.363,0,0,0-.159-1.111c-.124-.544-.424-.626-.592-.626a.522.522,0,0,0-.222.066,1.665,1.665,0,0,0-.394.265.482.482,0,0,0-.173.359l-.114,2.985a1.429,1.429,0,0,1-.228.743,3.312,3.312,0,0,1-.629.759,4.16,4.16,0,0,1-.8.574c-.541.293-.876.279-1.162.013a2.655,2.655,0,0,1-.47-.6,4.58,4.58,0,0,1-.38-.834,7.625,7.625,0,0,1-.262-.952q-.1-.489-.156-.922a5.741,5.741,0,0,1-.054-.7,4.41,4.41,0,0,1,.061-.742c.043-.254.089-.5.139-.742s.1-.488.142-.727a4.387,4.387,0,0,0,.072-.807,3.966,3.966,0,0,0-.043-.583.773.773,0,0,0-.492-.582l-.153-.07-.111.146a5.327,5.327,0,0,0-.913,1.929,8.377,8.377,0,0,0-.247,2.183,9.269,9.269,0,0,0,.3,2.2,8.784,8.784,0,0,0,.746,1.935,5.3,5.3,0,0,0,1.117,1.447,2.441,2.441,0,0,0,1.431.662c.053,0,.106.006.16.006a2.652,2.652,0,0,0,1.425-.474,5.192,5.192,0,0,0,1.435-1.546q.218.26.368.464.225.308.421.534a2.213,2.213,0,0,0,.447.4,1.633,1.633,0,0,0,.641.228,5.341,5.341,0,0,0,.916.049q.534-.011,1.373-.081l.1-.035a3.094,3.094,0,0,0,1.135-1.3,4.913,4.913,0,0,0,.437-1.693,7.584,7.584,0,0,0-.079-1.8A8.773,8.773,0,0,0,135.929,71.641Z" fill="#ff6f0d"/><path d="M145.1,72.468a15.947,15.947,0,0,0-.521-1.716,7.99,7.99,0,0,0-.757-1.547,4.261,4.261,0,0,0-1.028-1.132,2.2,2.2,0,0,0-2.392-.17,8.923,8.923,0,0,0-.969.563l-.821.548a1.175,1.175,0,0,1-.475.212l-.006-.026a.76.76,0,0,0-.115-.277.4.4,0,0,0-.346-.173.838.838,0,0,0-.361.077.552.552,0,0,0-.278.536v1.383c0,.6.016,1.239.048,1.89.031.668.089,1.358.172,2.048a13.909,13.909,0,0,0,.349,1.9,4.683,4.683,0,0,0,.62,1.446,1.275,1.275,0,0,0,1.075.632h.242v-.293a9.933,9.933,0,0,0-.118-1.517q-.114-.739-.258-1.465t-.252-1.427a9.019,9.019,0,0,1-.109-1.4,3.694,3.694,0,0,1,.2-1.233,2.914,2.914,0,0,1,.539-.954,2.327,2.327,0,0,1,.8-.6,2.472,2.472,0,0,1,1.012-.21,1.3,1.3,0,0,1,1,.6,5.581,5.581,0,0,1,.874,1.754,13.467,13.467,0,0,1,.534,2.641,16.01,16.01,0,0,1,0,3.264.463.463,0,0,0,.187.391.925.925,0,0,0,.212.106,1.066,1.066,0,0,0,.235.057,1.554,1.554,0,0,0,.156.013c.166,0,.4-.078.586-.452a2.922,2.922,0,0,0,.247-.814q.068-.427.1-.854c.02-.285.029-.5.029-.642a12.86,12.86,0,0,0-.1-1.447A14.544,14.544,0,0,0,145.1,72.468Z" fill="#ff6f0d"/><path d="M164.779,71.641a6.117,6.117,0,0,0-.648-1.288.88.88,0,0,0-1.014-.7.672.672,0,0,0-.233.069.5.5,0,0,0-.218.237.751.751,0,0,0-.025.481l.041.1a6.074,6.074,0,0,1,.493,1.022,8.255,8.255,0,0,1,.363,1.24,6.748,6.748,0,0,1,.144,1.281,3.254,3.254,0,0,1-.161,1.105,1.585,1.585,0,0,1-.514.749,1.635,1.635,0,0,1-.981.306,1.214,1.214,0,0,1-.938-.341,2.3,2.3,0,0,1-.526-.942,6.988,6.988,0,0,1-.261-1.318c-.051-.485-.094-.945-.132-1.377a8.363,8.363,0,0,0-.159-1.111c-.124-.544-.424-.626-.592-.626a.515.515,0,0,0-.221.066,1.625,1.625,0,0,0-.21.12,1.641,1.641,0,0,0-.187.146.483.483,0,0,0-.172.358l-.114,2.985a1.429,1.429,0,0,1-.228.743,3.312,3.312,0,0,1-.629.759,4.168,4.168,0,0,1-.8.574c-.541.293-.876.279-1.161.013a2.643,2.643,0,0,1-.47-.6,4.584,4.584,0,0,1-.38-.834,7.625,7.625,0,0,1-.262-.952q-.1-.488-.156-.922a5.741,5.741,0,0,1-.054-.7,4.41,4.41,0,0,1,.061-.742q.064-.382.139-.741c.051-.246.1-.488.143-.727a4.387,4.387,0,0,0,.072-.807,3.993,3.993,0,0,0-.043-.584.774.774,0,0,0-.492-.581l-.153-.07-.111.146a5.333,5.333,0,0,0-.913,1.929,8.377,8.377,0,0,0-.247,2.183,9.269,9.269,0,0,0,.3,2.2,8.784,8.784,0,0,0,.746,1.935A5.3,5.3,0,0,0,155,77.872a2.441,2.441,0,0,0,1.431.662c.053,0,.106.006.16.006a2.652,2.652,0,0,0,1.425-.474,5.192,5.192,0,0,0,1.435-1.546q.218.26.368.464.225.308.421.533a2.215,2.215,0,0,0,.448.4,1.6,1.6,0,0,0,.641.228,5.252,5.252,0,0,0,.915.049q.534-.011,1.373-.081l.1-.034a3.1,3.1,0,0,0,1.135-1.3,4.9,4.9,0,0,0,.436-1.693,7.535,7.535,0,0,0-.079-1.8A8.766,8.766,0,0,0,164.779,71.641Z" fill="#ff6f0d"/><path d="M173.175,72.6a12.562,12.562,0,0,0-.476-2,7.763,7.763,0,0,0-.8-1.715,3.419,3.419,0,0,0-1.176-1.173,2.653,2.653,0,0,0-1.546-.313,3.484,3.484,0,0,0-1.57.615c-.015-.176-.026-.335-.033-.478-.014-.265-.033-.522-.058-.773s-.058-.5-.1-.769-.1-.6-.194-.988-.207-.843-.353-1.374-.339-1.176-.579-1.943l-.06-.189h-.167a.964.964,0,0,0-.253.042,1.356,1.356,0,0,0-.294.123,1.7,1.7,0,0,0-.255.174.528.528,0,0,0-.2.411l.136,1.047q.059.388.136.752t.159.793c.058.3.137.668.236,1.084.2,1.08.353,2.151.459,3.184s.189,2.033.244,2.946.1,1.778.132,2.553.066,1.447.1,2a7.522,7.522,0,0,0,.181,1.321c.159.612.481.614.571.593a1.071,1.071,0,0,0,.479-.1.93.93,0,0,0,.4-.555l.019-.321c0-.085,0-.176.009-.278s.01-.219.01-.316v-.183a13.3,13.3,0,0,0-.1-1.411q-.094-.844-.189-1.746l-.18-1.737c-.055-.541-.083-.979-.083-1.3l.009-.128,0-.037c.16-.132.3-.248.417-.342a3.928,3.928,0,0,1,.393-.249,1.318,1.318,0,0,1,.324-.128,1.8,1.8,0,0,1,.407-.041,2.008,2.008,0,0,1,1.036.256,2.2,2.2,0,0,1,.72.7,3.558,3.558,0,0,1,.45,1.06,5.254,5.254,0,0,1,.159,1.307q0,.5-.009,1.115t-.037,1.247q-.028.638-.066,1.274l-.083,1.35.061.091c.243.36.488.542.73.542a.5.5,0,0,0,.135-.019,1.035,1.035,0,0,0,.622-.744,6.379,6.379,0,0,0,.272-1.379,12.018,12.018,0,0,0,.039-1.826A19.3,19.3,0,0,0,173.175,72.6Z" fill="#ff6f0d"/><path d="M175.168,66a.562.562,0,0,0,.494-.642,1.7,1.7,0,0,0-.2-.627,2.242,2.242,0,0,0-.41-.562c-.2-.2-.376-.286-.5-.261a.853.853,0,0,0-.447.11.653.653,0,0,0-.267.616,2.965,2.965,0,0,0,.056.65.921.921,0,0,0,.231.457.838.838,0,0,0,.4.209,2.223,2.223,0,0,0,.52.051Z" fill="#ff6f0d"/><path d="M176.613,72.814c-.118-.712-.225-1.446-.319-2.182a12.86,12.86,0,0,1-.083-2.236l0-.09-.038-.078a1.379,1.379,0,0,0-.314-.431.69.69,0,0,0-.46-.168.525.525,0,0,0-.442.221,1.109,1.109,0,0,0-.14.781v.343q0,.245-.009.514t-.009.538v.343q0,.255.019.958t.067,1.586c.031.589.079,1.213.143,1.856s.14,1.241.23,1.773a8.5,8.5,0,0,0,.326,1.358c.16.46.379.693.648.693a.749.749,0,0,0,.689-.461,1.756,1.756,0,0,0,.2-.791A16.219,16.219,0,0,0,176.954,75Q176.792,73.9,176.613,72.814Z" fill="#ff6f0d"/><path d="M185.566,72.828a4.09,4.09,0,0,0-1.3-.52,13.793,13.793,0,0,0-1.428-.232c-.483-.053-.955-.11-1.412-.171a5.107,5.107,0,0,1-1.171-.285,1.933,1.933,0,0,1-.767-.518,1.286,1.286,0,0,1-.256-.884.524.524,0,0,1,.157-.433,1.763,1.763,0,0,1,.634-.42,3.362,3.362,0,0,1,.925-.226,3,3,0,0,1,.947.042,2.084,2.084,0,0,1,.752.32.735.735,0,0,1,.3.4,2.05,2.05,0,0,0-.2.745,1.081,1.081,0,0,0,.134.623.554.554,0,0,0,.443.276.651.651,0,0,0,.492-.2,1.289,1.289,0,0,0,.334-.572,2.273,2.273,0,0,0,.073-.869,2.416,2.416,0,0,0-.512-1.5,2.715,2.715,0,0,0-1.158-.841,3.767,3.767,0,0,0-1.464-.241,4.277,4.277,0,0,0-1.5.288,3.513,3.513,0,0,0-1.234.809,2.514,2.514,0,0,0-.681,1.453,4.176,4.176,0,0,0,.375,1.791,2.9,2.9,0,0,0,.937,1.108,3.933,3.933,0,0,0,1.27.57,11.962,11.962,0,0,0,1.393.268q.7.092,1.362.171a4.789,4.789,0,0,1,1.141.273,1.8,1.8,0,0,1,.744.511,1.21,1.21,0,0,1,.222.834,1.011,1.011,0,0,1-.265.785,1.7,1.7,0,0,1-.77.4,3.782,3.782,0,0,1-1.025.109c-.857-.017-1.407-.007-1.785-.034a1.837,1.837,0,0,1-.51-.1,3.7,3.7,0,0,1-.51-.238c-.2-.107-.459-.245-.785-.412a1.38,1.38,0,0,1-.274-.195q-.145-.131-.28-.273a1.763,1.763,0,0,0-.362-.292.986.986,0,0,0-.777-.092.945.945,0,0,0-.365.223l-.148.136.07.208a4.062,4.062,0,0,0,.7,1.308,3.874,3.874,0,0,0,.958.842,4.088,4.088,0,0,0,1.147.483,9.252,9.252,0,0,0,1.187.222c.4.047.785.074,1.153.081s.724.011,1.053.011a3.95,3.95,0,0,0,1.1-.168,3.416,3.416,0,0,0,1.08-.539,3.138,3.138,0,0,0,.837-.937,2.718,2.718,0,0,0,.347-1.392,3.484,3.484,0,0,0-.362-1.682A2.77,2.77,0,0,0,185.566,72.828Z" fill="#ff6f0d"/><path d="M195.691,71.12a4.781,4.781,0,0,0-1.44-.937,5.434,5.434,0,0,0-3.633-.053,4.589,4.589,0,0,0-1.687.914,4.5,4.5,0,0,0-1.18,1.682,6.594,6.594,0,0,0-.442,2.556c0,.185.023.482.068.906s.111.91.2,1.48.19,1.176.3,1.834.24,1.326.381,2,.28,1.324.425,1.951.295,1.2.441,1.679a7.915,7.915,0,0,0,.445,1.192c.068.14.278.566.6.566h.214l.071-.085c.023-.027.077-.078.19-.184a2.214,2.214,0,0,0,.2-.271l.042-.12.019-.136a1.373,1.373,0,0,0-.024-.217c-.038-.227-.091-.589-.16-1.089l-.236-1.7q-.13-.948-.273-2t-.254-2l-.208-1.716c-.062-.507-.107-.881-.13-1.088,0-.034-.013-.169-.041-.408q-.037-.307-.054-.717t-.048-.853l-.046-.651v-.274a.626.626,0,0,1,.156-.41,2.119,2.119,0,0,1,.515-.438,3.847,3.847,0,0,1,.723-.345c.271-.1.53-.18.778-.246a5.992,5.992,0,0,1,.648-.144,3.209,3.209,0,0,1,.338-.043,3.126,3.126,0,0,1,1.064.193,3.189,3.189,0,0,1,.952.544,2.61,2.61,0,0,1,.666.858,2.683,2.683,0,0,1,.25,1.2.891.891,0,0,1-.239.649,2.085,2.085,0,0,1-.688.481,3.344,3.344,0,0,1-.89.247,2.045,2.045,0,0,1-1.461-.118q-.37-.178-.741-.392c-.255-.146-.506-.284-.754-.415a1.827,1.827,0,0,0-.86-.219h-.242v.293a2.837,2.837,0,0,0,.394,1.6,2.4,2.4,0,0,0,.968.841,3.791,3.791,0,0,0,1.228.339,7.589,7.589,0,0,0,2.523-.073,3.444,3.444,0,0,0,1.16-.5,2.555,2.555,0,0,0,.866-1.022,3.784,3.784,0,0,0,.316-1.645,5.018,5.018,0,0,0-.387-2.012A4.522,4.522,0,0,0,195.691,71.12Z" fill="#ff6f0d"/><path d="M201.426,76.223a4.211,4.211,0,0,1-1.249-.628,2.558,2.558,0,0,1-.718-.835,4.008,4.008,0,0,1-.367-1.014,6.119,6.119,0,0,1-.1-.672.968.968,0,0,0,.394.355,1.168,1.168,0,0,0,.516.113h.463a4.254,4.254,0,0,0,1.37-.252,5.1,5.1,0,0,0,1.363-.717,4.04,4.04,0,0,0,1.071-1.187,3.177,3.177,0,0,0,.443-1.658,7.273,7.273,0,0,0-.121-1.354,3.73,3.73,0,0,0-.467-1.189,2.965,2.965,0,0,0-.829-.866,2.776,2.776,0,0,0-1.206-.45,3.722,3.722,0,0,0-1.971.523,4.727,4.727,0,0,0-1.438,1.39,6.609,6.609,0,0,0-.892,2,9.079,9.079,0,0,0-.3,2.365,7.581,7.581,0,0,0,.446,2.67,6.045,6.045,0,0,0,1.222,2.017,5.526,5.526,0,0,0,1.776,1.279,5.177,5.177,0,0,0,2.144.452,5.651,5.651,0,0,0,1-.094,6.1,6.1,0,0,0,1.066-.3,4.723,4.723,0,0,0,1.03-.54,2.922,2.922,0,0,0,.841-.9l.305-.507-3.872.316A7.6,7.6,0,0,1,201.426,76.223Zm-2.484-4.337c0-.14,0-.28,0-.42a4.924,4.924,0,0,1,.194-1.388,4.567,4.567,0,0,1,.548-1.209,3.035,3.035,0,0,1,.843-.874,2.372,2.372,0,0,1,1.1-.4,1.223,1.223,0,0,1,.128-.007.9.9,0,0,1,.486.136,1.794,1.794,0,0,1,.5.479,2.16,2.16,0,0,1,.321.69,3.063,3.063,0,0,1,.111.811,1.075,1.075,0,0,1-.3.67,3.962,3.962,0,0,1-.845.742,6.4,6.4,0,0,1-.985.541,2.275,2.275,0,0,1-.644.2c-.3-.061-.546-.107-.741-.141a1.442,1.442,0,0,0-.463.017A.491.491,0,0,0,198.942,71.886Z" fill="#ff6f0d"/><path d="M213.747,68.542a2.094,2.094,0,0,0-.26-.327q-.128-.132-.286-.275l-.072-.045c-.2-.076-.381-.141-.534-.2s-.3-.1-.438-.141a2.8,2.8,0,0,0-.428-.087,3.306,3.306,0,0,0-1.281.1,5.983,5.983,0,0,0-.775.3c-.25.116-.5.24-.739.372q-.292.16-.571.277c-.038-.022-.081-.043-.132-.067l-.122-.055,0-.077h-.242a.234.234,0,0,0-.1.023h-.075l-.071.086a1.121,1.121,0,0,0-.22.438,2.2,2.2,0,0,0-.068.46,3.225,3.225,0,0,0,.011.451c.01.118.017.225.017.337.026.578.081,1.221.164,1.911s.194,1.42.334,2.162.314,1.479.518,2.2a14.049,14.049,0,0,0,.735,2.036l.069.152h.143a.819.819,0,0,0,.648-.353,1.124,1.124,0,0,0,.273-.715,8.381,8.381,0,0,0-.177-1.266q-.135-.6-.3-1.213t-.342-1.221a11.536,11.536,0,0,1-.285-1.177,7.6,7.6,0,0,1-.127-1.191,5.476,5.476,0,0,1,.1-1.179,1.65,1.65,0,0,1,.6-.686,1.272,1.272,0,0,1,.7-.255,2.925,2.925,0,0,1,.849.086,8.626,8.626,0,0,1,.893.267c.3.11.595.2.871.269A2.014,2.014,0,0,0,213.8,70l.212-.033v-.258a2.858,2.858,0,0,0-.066-.678A1.575,1.575,0,0,0,213.747,68.542Z" fill="#ff6f0d"/><path d="M217.2,74.561a2.151,2.151,0,0,0-.531-.7,1.205,1.205,0,0,0-.8-.293c-.222,0-.392.22-.5.385a5.1,5.1,0,0,0-.372.692c-.117.261-.218.519-.305.774a2.178,2.178,0,0,0-.14.658,3.553,3.553,0,0,0,.082.7,3.642,3.642,0,0,0,.259.805,2.7,2.7,0,0,0,.414.666.849.849,0,0,0,.658.32.985.985,0,0,0,.63-.258,2.708,2.708,0,0,0,.5-.56,3.665,3.665,0,0,0,.36-.7,2.066,2.066,0,0,0,.155-.741,4.148,4.148,0,0,0-.1-.875A3.859,3.859,0,0,0,217.2,74.561Z" fill="#ff6f0d"/><path d="M233.565,76.892a1.337,1.337,0,0,0-.451-.32q-.744-.585-1.529-1.2a18.345,18.345,0,0,1-1.51-1.264,19.35,19.35,0,0,1-1.389-1.432,10.859,10.859,0,0,1-1.076-1.458,7.494,7.494,0,0,1,.54-.854c.259-.387.542-.782.839-1.173s.607-.791.915-1.187.6-.793.86-1.167q.261-.339.506-.633a5.816,5.816,0,0,0,.437-.6,2.481,2.481,0,0,0,.269-.566.718.718,0,0,0-.121-.685l-.067-.082-.1-.005a1.671,1.671,0,0,0-1.035.324,5.349,5.349,0,0,0-.951.851,11.7,11.7,0,0,0-.919,1.17q-.448.644-.847,1.266t-.73,1.145c-.071.113-.139.22-.205.319-.014-.162-.028-.325-.042-.489l-.093-1.18c-.032-.387-.061-.747-.086-1.083a6.614,6.614,0,0,0-.139-.974.737.737,0,0,1-.032-.187,3.083,3.083,0,0,0-.074-.437,1.479,1.479,0,0,0-.171-.427.512.512,0,0,0-.448-.253.461.461,0,0,0-.293.117.838.838,0,0,0-.211.254,1.223,1.223,0,0,0-.112.272.93.93,0,0,0-.042.245c0,.473.026.984.078,1.518s.111,1.081.181,1.634.13,1.086.188,1.615.1,1.032.12,1.495q0,.182-.009.748t-.01,1.332q0,.763.038,1.616c.026.579.072,1.112.135,1.585a5.874,5.874,0,0,0,.284,1.239c.193.52.463.63.655.63a.605.605,0,0,0,.583-.455,2.651,2.651,0,0,0,.112-.843,8.5,8.5,0,0,0-.078-1.076q-.077-.567-.141-1.159c-.043-.389-.075-.767-.094-1.132,0-.065-.006-.129-.007-.19.084.107.176.214.273.321.268.293.579.6.925.909s.705.615,1.087.923.741.6,1.094.889.688.562,1,.814.558.464.756.658l.048.037a2.085,2.085,0,0,0,.718.289.641.641,0,0,0,.541-.137.741.741,0,0,0,.23-.524,1.365,1.365,0,0,0-.1-.558A1.558,1.558,0,0,0,233.565,76.892Z" fill="#ff6f0d"/><path d="M235.532,66a.563.563,0,0,0,.494-.642,1.717,1.717,0,0,0-.2-.628,2.267,2.267,0,0,0-.41-.561c-.2-.2-.382-.282-.5-.261a.856.856,0,0,0-.448.11.655.655,0,0,0-.267.616,2.922,2.922,0,0,0,.057.647.9.9,0,0,0,.23.457.817.817,0,0,0,.4.211,2.211,2.211,0,0,0,.52.051Z" fill="#ff6f0d"/><path d="M236.976,72.814c-.122-.741-.229-1.474-.319-2.182a12.767,12.767,0,0,1-.082-2.235l0-.09-.039-.078a1.392,1.392,0,0,0-.314-.432.692.692,0,0,0-.46-.168.526.526,0,0,0-.441.22,1.114,1.114,0,0,0-.141.781v.343c0,.164,0,.334-.009.515s-.009.366-.009.537v.343q0,.255.019.958t.067,1.587c.033.61.081,1.235.143,1.856.066.667.141,1.247.23,1.772a8.486,8.486,0,0,0,.326,1.359c.162.459.38.692.648.692a.748.748,0,0,0,.688-.461,1.762,1.762,0,0,0,.2-.791A16.287,16.287,0,0,0,237.317,75Q237.157,73.9,236.976,72.814Z" fill="#ff6f0d"/><path d="M245.974,72.468a16.129,16.129,0,0,0-.521-1.716,7.88,7.88,0,0,0-.758-1.547,4.263,4.263,0,0,0-1.027-1.133,2.208,2.208,0,0,0-2.394-.169,9.155,9.155,0,0,0-.969.563l-.821.548a1.181,1.181,0,0,1-.474.212A.254.254,0,0,1,239,69.2a.77.77,0,0,0-.114-.272.4.4,0,0,0-.347-.175.849.849,0,0,0-.362.077.553.553,0,0,0-.277.535v1.383c0,.583.016,1.219.047,1.89s.091,1.362.174,2.048a13.982,13.982,0,0,0,.348,1.9,4.672,4.672,0,0,0,.62,1.445,1.272,1.272,0,0,0,1.075.632h.242v-.293a9.993,9.993,0,0,0-.117-1.517q-.115-.738-.257-1.466t-.254-1.426a9.078,9.078,0,0,1-.109-1.4,3.7,3.7,0,0,1,.2-1.235,2.9,2.9,0,0,1,.538-.953,2.328,2.328,0,0,1,.805-.6,2.469,2.469,0,0,1,1.011-.21,1.305,1.305,0,0,1,1,.6,5.584,5.584,0,0,1,.875,1.754,13.429,13.429,0,0,1,.532,2.641,15.941,15.941,0,0,1,0,3.264.458.458,0,0,0,.188.391.92.92,0,0,0,.211.106,1.057,1.057,0,0,0,.235.057,1.544,1.544,0,0,0,.156.013c.165,0,.4-.078.587-.453a2.884,2.884,0,0,0,.245-.813c.046-.285.078-.568.1-.856s.028-.5.028-.64a12.53,12.53,0,0,0-.1-1.447A14.237,14.237,0,0,0,245.974,72.468Z" fill="#ff6f0d"/><path d="M256.232,75.74q-.067-.717-.142-1.73t-.142-2.222c-.044-.817-.1-1.659-.18-2.5s-.171-1.7-.285-2.541-.263-1.632-.441-2.378a12.012,12.012,0,0,0-.651-1.988,4.045,4.045,0,0,0-.949-1.388l-.092-.083-.111.034a.9.9,0,0,0-.632.773,3.979,3.979,0,0,0,.018,1.207,13.956,13.956,0,0,0,.32,1.536q.216.829.423,1.758c.135.613.248,1.245.335,1.88a8.851,8.851,0,0,1,.079,1.311q-.4-.319-.759-.6A12.069,12.069,0,0,0,252,68.1a5.154,5.154,0,0,0-.977-.478,2.933,2.933,0,0,0-.975-.172,2.372,2.372,0,0,0-1.6.569,4.294,4.294,0,0,0-1.051,1.4,7.277,7.277,0,0,0-.594,1.819,9.816,9.816,0,0,0-.186,1.849,8.354,8.354,0,0,0,.186,1.623,7.983,7.983,0,0,0,.572,1.765,5.422,5.422,0,0,0,.958,1.448,1.9,1.9,0,0,0,1.417.644,3.648,3.648,0,0,0,1.35-.265,5.689,5.689,0,0,0,1.259-.7,6.578,6.578,0,0,0,1.1-1.022,8.856,8.856,0,0,0,.819-1.112.238.238,0,0,1,.073.029,1.717,1.717,0,0,1,.142.336c.047.152.093.32.135.5.046.2.1.384.148.541a1.611,1.611,0,0,0,.256.492.817.817,0,0,0,1.021.158c.143-.06.381-.235.381-.734l-.029-.14A3.125,3.125,0,0,1,256.232,75.74ZM253.7,71.818v.425a3.207,3.207,0,0,1-.345,1.373,6.074,6.074,0,0,1-.92,1.384,5.521,5.521,0,0,1-1.212,1.04,1.858,1.858,0,0,1-1.854.23,1.334,1.334,0,0,1-.432-.489,3.727,3.727,0,0,1-.337-.925q-.149-.6-.331-1.4a5.684,5.684,0,0,1,.126-1.279,4.472,4.472,0,0,1,.441-1.236,2.632,2.632,0,0,1,.736-.871,1.668,1.668,0,0,1,1.022-.311,2.888,2.888,0,0,1,1.4.495A7.724,7.724,0,0,1,253.7,71.818Z" fill="#ff6f0d"/><path d="M272.55,71.151a7.65,7.65,0,0,0-.543-1.061,4.752,4.752,0,0,0-.732-.922,3.612,3.612,0,0,0-.871-.636,2.2,2.2,0,0,0-1.01-.24,5.977,5.977,0,0,0-1.908.32,5.112,5.112,0,0,0-1.728.993,5.185,5.185,0,0,0-1.259,1.667,5.354,5.354,0,0,0-.486,2.342,6.345,6.345,0,0,0,.32,2.067,4.513,4.513,0,0,0,.9,1.579,4.1,4.1,0,0,0,1.345.983,4.011,4.011,0,0,0,1.681.35,4.591,4.591,0,0,0,1.74-.347,4.75,4.75,0,0,0,1.529-1.01,4.887,4.887,0,0,0,1.085-1.639,5.775,5.775,0,0,0,.4-2.211,5.5,5.5,0,0,0-.12-1.112A6.454,6.454,0,0,0,272.55,71.151Zm-1.081,2.161a3.042,3.042,0,0,1-.317,1.052,4.316,4.316,0,0,1-.666.965,5.331,5.331,0,0,1-.846.763,3.745,3.745,0,0,1-.874.475,1.5,1.5,0,0,1-.713.113,2.141,2.141,0,0,1-1.035-.261,2.756,2.756,0,0,1-.842-.7,3.346,3.346,0,0,1-.553-1.036,3.976,3.976,0,0,1-.2-1.252,2.81,2.81,0,0,1,.32-1.371,3.246,3.246,0,0,1,.837-1.012,3.664,3.664,0,0,1,1.149-.614,4.062,4.062,0,0,1,1.189-.207,6.2,6.2,0,0,1,1.617.982,2.859,2.859,0,0,1,.786,1.056A2.166,2.166,0,0,1,271.47,73.312Z" fill="#ff6f0d"/><path d="M276.5,65.726a3.98,3.98,0,0,1,.525-1.186,2.864,2.864,0,0,1,.833-.839,1.905,1.905,0,0,1,1.057-.308.923.923,0,0,1,.662.28,6.215,6.215,0,0,1,.652.734q.326.43.624.778a1.086,1.086,0,0,0,.839.425h.676v-.293a2.984,2.984,0,0,0-.379-1.429,5.008,5.008,0,0,0-2.093-2.052,2.7,2.7,0,0,0-1.208-.331,2.655,2.655,0,0,0-1.66.526,4.028,4.028,0,0,0-1.1,1.348,7.438,7.438,0,0,0-.653,1.828,16.269,16.269,0,0,0-.318,2.02,17.068,17.068,0,0,0-.078,1.983q.014.756.043,1.348l-.34.034a3.973,3.973,0,0,0-.706.132,1.574,1.574,0,0,0-.638.348,1.08,1.08,0,0,0-.323.829,1.093,1.093,0,0,0,.086.449.446.446,0,0,0,.421.278h.095a1.913,1.913,0,0,0,.429-.075c.175-.046.355-.091.544-.137s.367-.087.534-.125c.094-.021.173-.041.237-.061l.07.085c.043.125.109.289.193.479q.133.371.316.832l.367.945q.19.5.381.957l.548,1.324c.052.128.124.286.223.489a5.589,5.589,0,0,0,.348.555,2.31,2.31,0,0,0,.449.476.878.878,0,0,0,.538.219.685.685,0,0,0,.734-.773,3.047,3.047,0,0,0-.379-1.438q-.342-.644-.742-1.335a14.16,14.16,0,0,1-.711-1.41,3.6,3.6,0,0,1-.287-1.129,5.972,5.972,0,0,0,1.1.131,4.543,4.543,0,0,0,1.091-.1,1.293,1.293,0,0,0,.717-.4.683.683,0,0,0,.089-.757.724.724,0,0,0-.119-.45.538.538,0,0,0-.462-.221q-.936-.068-1.544-.136c-.406-.045-.731-.086-.974-.125s-.419-.067-.529-.09l-.026-.006-.32-3.054v-.229A5.21,5.21,0,0,1,276.5,65.726Z" fill="#ff6f0d"/><path d="M284.177,75.436a3.845,3.845,0,0,0-.3-.874,2.131,2.131,0,0,0-.531-.7,1.205,1.205,0,0,0-.8-.293c-.222,0-.392.22-.5.385a5.332,5.332,0,0,0-.372.692c-.117.261-.218.519-.305.774a2.178,2.178,0,0,0-.14.658,3.553,3.553,0,0,0,.082.7,3.642,3.642,0,0,0,.259.805,2.7,2.7,0,0,0,.414.666.849.849,0,0,0,.658.32.985.985,0,0,0,.63-.258,2.708,2.708,0,0,0,.5-.56,3.665,3.665,0,0,0,.36-.7,2.066,2.066,0,0,0,.155-.741A4.148,4.148,0,0,0,284.177,75.436Z" fill="#ff6f0d"/></svg>